<svg xmlns="http://www.w3.org/2000/svg" xmlns:xlink="http://www.w3.org/1999/xlink" width="4000" zoomAndPan="magnify" viewBox="0 0 3000 4499.999944" height="6000" preserveAspectRatio="xMidYMid meet" version="1.0"><defs><clipPath id="0a4bb8662f"><path d="M 0 0 L 2752.984375 0 L 2752.984375 4281 L 0 4281 Z M 0 0 " clip-rule="nonzero"/></clipPath><clipPath id="79f374b613"><path d="M 64.5 0 L 2688.484375 0 C 2724.105469 0 2752.984375 28.878906 2752.984375 64.5 L 2752.984375 4218.644531 C 2752.984375 4254.269531 2724.105469 4283.144531 2688.484375 4283.144531 L 64.5 4283.144531 C 28.878906 4283.144531 0 4254.269531 0 4218.644531 L 0 64.5 C 0 28.878906 28.878906 0 64.5 0 Z M 64.5 0 " clip-rule="nonzero"/></clipPath><clipPath id="9748befb9f"><path d="M 0 0 L 2753 0 L 2753 4283.25 L 0 4283.25 Z M 0 0 " clip-rule="nonzero"/></clipPath><clipPath id="1aabe6b310"><path d="M 64.5 0 L 2688.480469 0 C 2724.101562 0 2752.980469 28.878906 2752.980469 64.5 L 2752.980469 4218.644531 C 2752.980469 4254.265625 2724.101562 4283.144531 2688.480469 4283.144531 L 64.5 4283.144531 C 28.878906 4283.144531 0 4254.265625 0 4218.644531 L 0 64.5 C 0 28.878906 28.878906 0 64.5 0 Z M 64.5 0 " clip-rule="nonzero"/></clipPath><clipPath id="e41e37607c"><path d="M 123.507812 108.425781 L 2876.492188 108.425781 L 2876.492188 4389 L 123.507812 4389 Z M 123.507812 108.425781 " clip-rule="nonzero"/></clipPath><clipPath id="5ed4332c7d"><path d="M 188.007812 108.425781 L 2811.992188 108.425781 C 2847.613281 108.425781 2876.492188 137.304688 2876.492188 172.925781 L 2876.492188 4327.074219 C 2876.492188 4362.695312 2847.613281 4391.574219 2811.992188 4391.574219 L 188.007812 4391.574219 C 152.386719 4391.574219 123.507812 4362.695312 123.507812 4327.074219 L 123.507812 172.925781 C 123.507812 137.304688 152.386719 108.425781 188.007812 108.425781 Z M 188.007812 108.425781 " clip-rule="nonzero"/></clipPath><clipPath id="a7be7645f9"><path d="M 123.507812 108.429688 L 2876.757812 108.429688 L 2876.757812 4391.675781 L 123.507812 4391.675781 Z M 123.507812 108.429688 " clip-rule="nonzero"/></clipPath><clipPath id="57689c1c95"><path d="M 188.007812 108.429688 L 2811.988281 108.429688 C 2847.613281 108.429688 2876.488281 137.304688 2876.488281 172.929688 L 2876.488281 4327.070312 C 2876.488281 4362.691406 2847.613281 4391.570312 2811.988281 4391.570312 L 188.007812 4391.570312 C 152.386719 4391.570312 123.507812 4362.691406 123.507812 4327.070312 L 123.507812 172.929688 C 123.507812 137.304688 152.386719 108.429688 188.007812 108.429688 Z M 188.007812 108.429688 " clip-rule="nonzero"/></clipPath><clipPath id="1df5a243aa"><path d="M 316 192 L 1517 192 L 1517 1393 L 316 1393 Z M 316 192 " clip-rule="nonzero"/></clipPath><clipPath id="19466a5289"><path d="M 123.507812 490.351562 L 1218.75 0 L 1709.101562 1095.242188 L 613.859375 1585.59375 Z M 123.507812 490.351562 " clip-rule="nonzero"/></clipPath><clipPath id="563308ecb4"><path d="M 123.507812 490.351562 L 1218.75 0 L 1709.101562 1095.242188 L 613.859375 1585.59375 Z M 123.507812 490.351562 " clip-rule="nonzero"/></clipPath><clipPath id="94488f7f4f"><path d="M 1019 392 L 1359 392 L 1359 783 L 1019 783 Z M 1019 392 " clip-rule="nonzero"/></clipPath><clipPath id="7b9c76ce61"><path d="M 123.507812 490.351562 L 1218.75 0 L 1709.101562 1095.242188 L 613.859375 1585.59375 Z M 123.507812 490.351562 " clip-rule="nonzero"/></clipPath><clipPath id="29584d981e"><path d="M 123.507812 490.351562 L 1218.75 0 L 1709.101562 1095.242188 L 613.859375 1585.59375 Z M 123.507812 490.351562 " clip-rule="nonzero"/></clipPath><clipPath id="d71d63d751"><path d="M 443 720 L 776 720 L 776 1117 L 443 1117 Z M 443 720 " clip-rule="nonzero"/></clipPath><clipPath id="3e1180bc42"><path d="M 123.507812 490.351562 L 1218.75 0 L 1709.101562 1095.242188 L 613.859375 1585.59375 Z M 123.507812 490.351562 " clip-rule="nonzero"/></clipPath><clipPath id="01af25e41c"><path d="M 123.507812 490.351562 L 1218.75 0 L 1709.101562 1095.242188 L 613.859375 1585.59375 Z M 123.507812 490.351562 " clip-rule="nonzero"/></clipPath><clipPath id="3731ad0dc9"><path d="M 634 731 L 1390 731 L 1390 1207 L 634 1207 Z M 634 731 " clip-rule="nonzero"/></clipPath><clipPath id="0a3599f425"><path d="M 123.507812 490.351562 L 1218.75 0 L 1709.101562 1095.242188 L 613.859375 1585.59375 Z M 123.507812 490.351562 " clip-rule="nonzero"/></clipPath><clipPath id="ad0b347fa6"><path d="M 123.507812 490.351562 L 1218.75 0 L 1709.101562 1095.242188 L 613.859375 1585.59375 Z M 123.507812 490.351562 " clip-rule="nonzero"/></clipPath><clipPath id="09a40977d9"><path d="M 457 376 L 1139 376 L 1139 800 L 457 800 Z M 457 376 " clip-rule="nonzero"/></clipPath><clipPath id="c2546de0af"><path d="M 123.507812 490.351562 L 1218.75 0 L 1709.101562 1095.242188 L 613.859375 1585.59375 Z M 123.507812 490.351562 " clip-rule="nonzero"/></clipPath><clipPath id="40374a388b"><path d="M 123.507812 490.351562 L 1218.75 0 L 1709.101562 1095.242188 L 613.859375 1585.59375 Z M 123.507812 490.351562 " clip-rule="nonzero"/></clipPath><clipPath id="a01fc4d0a1"><path d="M 1344 1363 L 2684 1363 L 2684 2762 L 1344 2762 Z M 1344 1363 " clip-rule="nonzero"/></clipPath><clipPath id="947f0e3874"><path d="M 1577.324219 1311.953125 L 2876.289062 2259.769531 L 2448.359375 2846.242188 L 1149.394531 1898.425781 Z M 1577.324219 1311.953125 " clip-rule="nonzero"/></clipPath><clipPath id="3a1a756fb9"><path d="M 1577.324219 1311.953125 L 2876.289062 2259.769531 L 2448.359375 2846.242188 L 1149.394531 1898.425781 Z M 1577.324219 1311.953125 " clip-rule="nonzero"/></clipPath><clipPath id="1dfb962b33"><path d="M 611 2425.617188 L 1497 2425.617188 L 1497 3173 L 611 3173 Z M 611 2425.617188 " clip-rule="nonzero"/></clipPath><clipPath id="31849ed1d9"><path d="M 2278 3224.414062 L 2549 3224.414062 L 2549 3641.414062 L 2278 3641.414062 Z M 2278 3224.414062 " clip-rule="nonzero"/></clipPath><clipPath id="482a2437a2"><path d="M 588 1668.914062 L 858 1668.914062 L 858 2085.914062 L 588 2085.914062 Z M 588 1668.914062 " clip-rule="nonzero"/></clipPath><clipPath id="89fb3228da"><path d="M 2001 563.414062 L 2271 563.414062 L 2271 980.414062 L 2001 980.414062 Z M 2001 563.414062 " clip-rule="nonzero"/></clipPath></defs><g clip-path="url(#0a4bb8662f)"><g clip-path="url(#79f374b613)"><path fill="#001e00" d="M 0 0 L 2752.984375 0 L 2752.984375 4280.027344 L 0 4280.027344 Z M 0 0 " fill-opacity="1" fill-rule="nonzero"/></g></g><g clip-path="url(#9748befb9f)"><g clip-path="url(#1aabe6b310)"><path stroke-linecap="butt" transform="matrix(0.75, 0, 0, 0.75, 0.0000186667, 0.000959548)" fill="none" stroke-linejoin="miter" d="M 85.99998 -0.0012794 L 3584.640794 -0.0012794 C 3632.135588 -0.0012794 3670.640799 38.503931 3670.640799 85.998725 L 3670.640799 5624.8584 C 3670.640799 5672.353194 3632.135588 5710.858405 3584.640794 5710.858405 L 85.99998 5710.858405 C 38.505186 5710.858405 -0.0000248889 5672.353194 -0.0000248889 5624.8584 L -0.0000248889 85.998725 C -0.0000248889 38.503931 38.505186 -0.0012794 85.99998 -0.0012794 Z M 85.99998 -0.0012794 " stroke="#001e00" stroke-width="108" stroke-opacity="1" stroke-miterlimit="4"/></g></g><g clip-path="url(#e41e37607c)"><g clip-path="url(#5ed4332c7d)"><path fill="#003300" d="M 123.507812 108.425781 L 2876.492188 108.425781 L 2876.492188 4388.453125 L 123.507812 4388.453125 Z M 123.507812 108.425781 " fill-opacity="1" fill-rule="nonzero"/></g></g><g clip-path="url(#a7be7645f9)"><g clip-path="url(#57689c1c95)"><path stroke-linecap="butt" transform="matrix(0.75, 0, 0, 0.75, 123.508649, 108.427887)" fill="none" stroke-linejoin="miter" d="M 85.99889 0.00240076 L 3584.639704 0.00240076 C 3632.139706 0.00240076 3670.639709 38.502403 3670.639709 86.002405 L 3670.639709 5624.856872 C 3670.639709 5672.351666 3632.139706 5710.856876 3584.639704 5710.856876 L 85.99889 5710.856876 C 38.504095 5710.856876 -0.00111504 5672.351666 -0.00111504 5624.856872 L -0.00111504 86.002405 C -0.00111504 38.502403 38.504095 0.00240076 85.99889 0.00240076 Z M 85.99889 0.00240076 " stroke="#003300" stroke-width="108" stroke-opacity="1" stroke-miterlimit="4"/></g></g><g clip-path="url(#1df5a243aa)"><g clip-path="url(#19466a5289)"><g clip-path="url(#563308ecb4)"><path fill="#7fa3e7" d="M 1463.925781 547.621094 C 1467.9375 556.582031 1471.730469 565.640625 1475.296875 574.789062 C 1478.863281 583.9375 1482.207031 593.164062 1485.320312 602.476562 C 1488.433594 611.789062 1491.320312 621.171875 1493.972656 630.628906 C 1496.628906 640.082031 1499.046875 649.59375 1501.234375 659.167969 C 1503.421875 668.742188 1505.371094 678.363281 1507.085938 688.03125 C 1508.800781 697.699219 1510.277344 707.402344 1511.515625 717.144531 C 1512.753906 726.886719 1513.753906 736.652344 1514.511719 746.441406 C 1515.269531 756.230469 1515.789062 766.035156 1516.066406 775.851562 C 1516.34375 785.664062 1516.378906 795.480469 1516.175781 805.300781 C 1515.96875 815.117188 1515.523438 824.921875 1514.839844 834.71875 C 1514.152344 844.511719 1513.226562 854.285156 1512.0625 864.035156 C 1510.894531 873.785156 1509.492188 883.5 1507.847656 893.183594 C 1506.203125 902.863281 1504.324219 912.5 1502.210938 922.085938 C 1500.09375 931.675781 1497.742188 941.207031 1495.160156 950.679688 C 1492.574219 960.152344 1489.761719 969.558594 1486.714844 978.894531 C 1483.667969 988.230469 1480.398438 997.484375 1476.898438 1006.660156 C 1473.398438 1015.832031 1469.671875 1024.914062 1465.726562 1033.90625 C 1461.78125 1042.898438 1457.617188 1051.789062 1453.234375 1060.574219 C 1448.851562 1069.363281 1444.257812 1078.039062 1439.449219 1086.597656 C 1434.640625 1095.160156 1429.625 1103.601562 1424.402344 1111.914062 C 1419.179688 1120.230469 1413.757812 1128.414062 1408.132812 1136.460938 C 1402.507812 1144.511719 1396.691406 1152.417969 1390.675781 1160.179688 C 1384.664062 1167.945312 1378.464844 1175.554688 1372.078125 1183.015625 C 1365.691406 1190.472656 1359.128906 1197.769531 1352.382812 1204.90625 C 1345.636719 1212.042969 1338.722656 1219.011719 1331.636719 1225.808594 C 1324.550781 1232.605469 1317.300781 1239.226562 1309.890625 1245.667969 C 1302.476562 1252.109375 1294.914062 1258.363281 1287.195312 1264.433594 C 1279.476562 1270.503906 1271.613281 1276.378906 1263.605469 1282.0625 C 1255.597656 1287.746094 1247.457031 1293.230469 1239.179688 1298.515625 C 1230.902344 1303.800781 1222.5 1308.878906 1213.976562 1313.75 C 1205.449219 1318.621094 1196.808594 1323.28125 1188.054688 1327.726562 C 1179.300781 1332.175781 1170.441406 1336.40625 1161.480469 1340.417969 C 1152.519531 1344.429688 1143.460938 1348.21875 1134.3125 1351.789062 C 1125.167969 1355.355469 1115.9375 1358.699219 1106.625 1361.8125 C 1097.3125 1364.925781 1087.929688 1367.8125 1078.472656 1370.464844 C 1069.019531 1373.121094 1059.507812 1375.539062 1049.933594 1377.726562 C 1040.359375 1379.914062 1030.738281 1381.863281 1021.070312 1383.578125 C 1011.402344 1385.292969 1001.699219 1386.769531 991.957031 1388.007812 C 982.214844 1389.246094 972.449219 1390.246094 962.660156 1391.003906 C 952.871094 1391.761719 943.066406 1392.28125 933.25 1392.558594 C 923.4375 1392.835938 913.621094 1392.871094 903.800781 1392.667969 C 893.984375 1392.460938 884.179688 1392.015625 874.382812 1391.332031 C 864.589844 1390.644531 854.816406 1389.71875 845.066406 1388.550781 C 835.316406 1387.386719 825.601562 1385.980469 815.917969 1384.339844 C 806.238281 1382.695312 796.601562 1380.816406 787.015625 1378.699219 C 777.425781 1376.585938 767.894531 1374.234375 758.421875 1371.652344 C 748.949219 1369.066406 739.542969 1366.253906 730.207031 1363.207031 C 720.871094 1360.160156 711.617188 1356.886719 702.445312 1353.386719 C 693.269531 1349.886719 684.1875 1346.164062 675.195312 1342.21875 C 666.203125 1338.273438 657.3125 1334.109375 648.527344 1329.726562 C 639.738281 1325.34375 631.0625 1320.75 622.503906 1315.941406 C 613.941406 1311.132812 605.503906 1306.117188 597.1875 1300.894531 C 588.871094 1295.671875 580.6875 1290.25 572.640625 1284.625 C 564.589844 1279 556.683594 1273.179688 548.921875 1267.167969 C 541.15625 1261.15625 533.546875 1254.957031 526.085938 1248.570312 C 518.628906 1242.183594 511.332031 1235.617188 504.195312 1228.875 C 497.058594 1222.128906 490.089844 1215.214844 483.292969 1208.128906 C 476.496094 1201.042969 469.875 1193.792969 463.433594 1186.378906 C 456.992188 1178.96875 450.738281 1171.402344 444.667969 1163.683594 C 438.597656 1155.964844 432.722656 1148.105469 427.039062 1140.097656 C 421.355469 1132.089844 415.871094 1123.945312 410.585938 1115.671875 C 405.300781 1107.394531 400.222656 1098.992188 395.351562 1090.46875 C 390.480469 1081.941406 385.820312 1073.300781 381.375 1064.546875 C 376.925781 1055.792969 372.695312 1046.933594 368.683594 1037.972656 C 364.671875 1029.007812 360.882812 1019.953125 357.3125 1010.804688 C 353.746094 1001.65625 350.402344 992.425781 347.289062 983.113281 C 344.175781 973.800781 341.289062 964.417969 338.636719 954.964844 C 335.980469 945.511719 333.5625 935.996094 331.375 926.425781 C 329.1875 916.851562 327.238281 907.230469 325.523438 897.5625 C 323.808594 887.894531 322.332031 878.191406 321.09375 868.449219 C 319.855469 858.707031 318.855469 848.941406 318.097656 839.152344 C 317.339844 829.363281 316.820312 819.558594 316.542969 809.742188 C 316.265625 799.929688 316.230469 790.113281 316.433594 780.292969 C 316.640625 770.476562 317.085938 760.671875 317.773438 750.875 C 318.457031 741.078125 319.382812 731.308594 320.550781 721.558594 C 321.714844 711.808594 323.121094 702.089844 324.761719 692.410156 C 326.40625 682.730469 328.285156 673.09375 330.402344 663.503906 C 332.515625 653.917969 334.867188 644.386719 337.449219 634.914062 C 340.035156 625.4375 342.847656 616.035156 345.894531 606.699219 C 348.941406 597.363281 352.214844 588.109375 355.714844 578.933594 C 359.214844 569.761719 362.9375 560.675781 366.882812 551.6875 C 370.828125 542.695312 374.992188 533.804688 379.375 525.015625 C 383.757812 516.230469 388.351562 507.554688 393.160156 498.992188 C 397.96875 490.433594 402.984375 481.992188 408.207031 473.679688 C 413.429688 465.363281 418.851562 457.179688 424.476562 449.132812 C 430.101562 441.082031 435.921875 433.175781 441.933594 425.414062 C 447.945312 417.648438 454.144531 410.039062 460.53125 402.578125 C 466.917969 395.121094 473.484375 387.820312 480.226562 380.683594 C 486.972656 373.546875 493.886719 366.582031 500.972656 359.785156 C 508.058594 352.988281 515.308594 346.367188 522.722656 339.925781 C 530.132812 333.484375 537.699219 327.230469 545.417969 321.160156 C 553.136719 315.089844 560.996094 309.210938 569.003906 303.527344 C 577.011719 297.84375 585.15625 292.359375 593.429688 287.078125 C 601.707031 281.792969 610.109375 276.714844 618.632812 271.84375 C 627.160156 266.972656 635.800781 262.3125 644.554688 257.863281 C 653.308594 253.417969 662.167969 249.1875 671.128906 245.175781 C 680.09375 241.164062 689.148438 237.371094 698.296875 233.804688 C 707.445312 230.238281 716.675781 226.894531 725.988281 223.78125 C 735.300781 220.667969 744.683594 217.78125 754.136719 215.128906 C 763.589844 212.472656 773.105469 210.054688 782.675781 207.867188 C 792.25 205.679688 801.871094 203.730469 811.539062 202.015625 C 821.207031 200.300781 830.910156 198.824219 840.652344 197.585938 C 850.394531 196.347656 860.160156 195.347656 869.949219 194.589844 C 879.738281 193.832031 889.542969 193.3125 899.359375 193.035156 C 909.171875 192.757812 918.992188 192.722656 928.808594 192.925781 C 938.625 193.132812 948.429688 193.578125 958.226562 194.261719 C 968.023438 194.949219 977.792969 195.875 987.542969 197.039062 C 997.292969 198.207031 1007.011719 199.609375 1016.691406 201.253906 C 1026.371094 202.898438 1036.007812 204.777344 1045.597656 206.890625 C 1055.183594 209.007812 1064.714844 211.359375 1074.1875 213.941406 C 1083.664062 216.527344 1093.066406 219.339844 1102.402344 222.386719 C 1111.738281 225.433594 1120.992188 228.703125 1130.167969 232.203125 C 1139.339844 235.703125 1148.425781 239.429688 1157.417969 243.375 C 1166.40625 247.320312 1175.296875 251.484375 1184.085938 255.867188 C 1192.871094 260.25 1201.546875 264.84375 1210.109375 269.652344 C 1218.667969 274.460938 1227.109375 279.476562 1235.421875 284.699219 C 1243.738281 289.921875 1251.921875 295.34375 1259.96875 300.96875 C 1268.019531 306.59375 1275.925781 312.410156 1283.6875 318.425781 C 1291.453125 324.4375 1299.0625 330.636719 1306.523438 337.023438 C 1313.980469 343.410156 1321.28125 349.972656 1328.417969 356.71875 C 1335.554688 363.464844 1342.519531 370.378906 1349.316406 377.464844 C 1356.113281 384.550781 1362.734375 391.800781 1369.175781 399.210938 C 1375.617188 406.625 1381.871094 414.1875 1387.941406 421.90625 C 1394.011719 429.625 1399.890625 437.488281 1405.574219 445.496094 C 1411.257812 453.503906 1416.742188 461.644531 1422.023438 469.921875 C 1427.308594 478.199219 1432.386719 486.601562 1437.257812 495.125 C 1442.128906 503.652344 1446.789062 512.292969 1451.238281 521.046875 C 1455.683594 529.800781 1459.914062 538.660156 1463.925781 547.621094 Z M 1463.925781 547.621094 " fill-opacity="1" fill-rule="nonzero"/></g></g></g><g clip-path="url(#94488f7f4f)"><g clip-path="url(#7b9c76ce61)"><g clip-path="url(#29584d981e)"><path fill="#d3d3e0" d="M 1177.273438 392.492188 L 1019.265625 696.210938 L 1358.90625 782.917969 L 1193.363281 413.164062 C 1191.621094 409.078125 1189.386719 405.289062 1186.65625 401.785156 C 1183.929688 398.28125 1180.804688 395.183594 1177.273438 392.492188 Z M 1177.273438 392.492188 " fill-opacity="1" fill-rule="nonzero"/></g></g></g><g clip-path="url(#d71d63d751)"><g clip-path="url(#3e1180bc42)"><g clip-path="url(#01af25e41c)"><path fill="#d3d3e0" d="M 443.898438 720.832031 C 443.554688 725.257812 443.78125 729.652344 444.578125 734.019531 C 445.375 738.386719 446.714844 742.582031 448.597656 746.601562 L 614.140625 1116.355469 L 775.683594 805.265625 Z M 443.898438 720.832031 " fill-opacity="1" fill-rule="nonzero"/></g></g></g><g clip-path="url(#3731ad0dc9)"><g clip-path="url(#0a3599f425)"><g clip-path="url(#ad0b347fa6)"><path fill="#d3d3e0" d="M 963.316406 803.828125 C 961.964844 807.03125 960.3125 810.074219 958.371094 812.957031 C 956.425781 815.839844 954.222656 818.507812 951.757812 820.960938 C 949.296875 823.417969 946.621094 825.609375 943.734375 827.546875 C 940.84375 829.484375 937.796875 831.121094 934.59375 832.46875 C 931.238281 834.007812 927.769531 835.226562 924.1875 836.117188 C 920.605469 837.011719 916.972656 837.5625 913.285156 837.773438 C 909.601562 837.980469 905.925781 837.847656 902.265625 837.367188 C 898.605469 836.890625 895.023438 836.074219 891.515625 834.925781 L 814.949219 816.613281 L 634.34375 1161.476562 L 639.246094 1172.429688 C 640.023438 1174.167969 640.882812 1175.859375 641.828125 1177.511719 C 642.773438 1179.164062 643.792969 1180.765625 644.894531 1182.316406 C 645.996094 1183.867188 647.171875 1185.359375 648.417969 1186.796875 C 649.667969 1188.234375 650.980469 1189.605469 652.363281 1190.910156 C 653.746094 1192.21875 655.191406 1193.453125 656.695312 1194.617188 C 658.199219 1195.78125 659.753906 1196.871094 661.367188 1197.882812 C 662.976562 1198.894531 664.632812 1199.824219 666.335938 1200.671875 C 668.039062 1201.523438 669.777344 1202.285156 671.554688 1202.964844 C 673.332031 1203.640625 675.136719 1204.230469 676.972656 1204.730469 C 678.808594 1205.230469 680.664062 1205.640625 682.539062 1205.960938 C 684.414062 1206.277344 686.300781 1206.503906 688.199219 1206.636719 C 690.097656 1206.769531 691.996094 1206.808594 693.898438 1206.753906 C 695.796875 1206.699219 697.691406 1206.554688 699.578125 1206.3125 C 701.464844 1206.074219 703.335938 1205.742188 705.191406 1205.320312 C 707.046875 1204.894531 708.875 1204.382812 710.679688 1203.777344 C 712.484375 1203.175781 714.253906 1202.484375 715.988281 1201.707031 L 1354.734375 915.734375 C 1356.472656 914.957031 1358.164062 914.097656 1359.816406 913.152344 C 1361.46875 912.210938 1363.070312 911.1875 1364.621094 910.085938 C 1366.171875 908.984375 1367.664062 907.8125 1369.101562 906.5625 C 1370.535156 905.316406 1371.90625 904 1373.214844 902.617188 C 1374.519531 901.234375 1375.757812 899.792969 1376.921875 898.289062 C 1378.085938 896.785156 1379.175781 895.226562 1380.1875 893.617188 C 1381.199219 892.003906 1382.128906 890.347656 1382.976562 888.648438 C 1383.824219 886.945312 1384.589844 885.203125 1385.265625 883.425781 C 1385.945312 881.648438 1386.535156 879.84375 1387.035156 878.007812 C 1387.535156 876.171875 1387.945312 874.320312 1388.261719 872.441406 C 1388.582031 870.566406 1388.808594 868.679688 1388.941406 866.785156 C 1389.074219 864.886719 1389.113281 862.988281 1389.058594 861.085938 C 1389.003906 859.183594 1388.859375 857.289062 1388.617188 855.402344 C 1388.378906 853.515625 1388.046875 851.644531 1387.625 849.789062 C 1387.199219 847.9375 1386.6875 846.105469 1386.082031 844.304688 C 1385.480469 842.5 1384.789062 840.730469 1384.011719 838.992188 L 1379.109375 828.039062 L 1000.792969 731.304688 Z M 963.316406 803.828125 " fill-opacity="1" fill-rule="nonzero"/></g></g></g><g clip-path="url(#09a40977d9)"><g clip-path="url(#c2546de0af)"><g clip-path="url(#40374a388b)"><path fill="#d3d3e0" d="M 831.761719 780.160156 L 901.894531 798.195312 C 902.496094 798.425781 903.109375 798.625 903.730469 798.796875 C 904.351562 798.964844 904.980469 799.105469 905.617188 799.214844 C 906.253906 799.320312 906.890625 799.398438 907.535156 799.441406 C 908.179688 799.488281 908.820312 799.5 909.464844 799.484375 C 910.109375 799.464844 910.753906 799.414062 911.394531 799.335938 C 912.03125 799.253906 912.667969 799.140625 913.296875 798.996094 C 913.925781 798.855469 914.542969 798.679688 915.15625 798.476562 C 915.765625 798.269531 916.367188 798.035156 916.957031 797.773438 C 917.542969 797.511719 918.117188 797.21875 918.679688 796.898438 C 919.238281 796.578125 919.78125 796.230469 920.304688 795.859375 C 920.832031 795.484375 921.339844 795.085938 921.824219 794.664062 C 922.3125 794.242188 922.777344 793.796875 923.21875 793.328125 C 923.660156 792.859375 924.082031 792.367188 924.476562 791.859375 C 924.871094 791.347656 925.238281 790.820312 925.582031 790.273438 C 925.925781 789.730469 926.238281 789.167969 926.527344 788.589844 C 926.816406 788.011719 927.074219 787.421875 927.304688 786.820312 L 960.261719 719.472656 L 978.734375 684.382812 L 1138.628906 376.660156 C 1130.261719 376.644531 1122.242188 378.308594 1114.566406 381.648438 L 476.699219 667.230469 C 472.996094 668.90625 469.515625 670.960938 466.261719 673.394531 C 463.003906 675.828125 460.046875 678.582031 457.390625 681.660156 L 793.570312 768.859375 Z M 831.761719 780.160156 " fill-opacity="1" fill-rule="nonzero"/></g></g></g><g clip-path="url(#a01fc4d0a1)"><g clip-path="url(#947f0e3874)"><g clip-path="url(#3a1a756fb9)"><path fill="#7fa3e7" d="M 2279.613281 2420.824219 L 1397.847656 1777.425781 C 1370.183594 1757.242188 1351.683594 1726.910156 1346.421875 1693.109375 C 1341.121094 1659.28125 1349.492188 1624.75 1369.664062 1597.101562 L 1501.519531 1416.398438 C 1521.691406 1388.75 1552.023438 1370.246094 1585.851562 1364.972656 C 1619.648438 1359.671875 1654.179688 1368.03125 1681.839844 1388.214844 L 2630.847656 2080.679688 C 2658.511719 2100.863281 2677.011719 2131.195312 2682.277344 2164.996094 C 2687.574219 2198.824219 2679.207031 2233.355469 2659.03125 2261.003906 L 2527.285156 2441.558594 L 2591.660156 2511.632812 C 2597.03125 2517.480469 2598.738281 2525.792969 2596.140625 2533.296875 C 2593.507812 2540.773438 2586.980469 2546.214844 2579.15625 2547.449219 C 2579.15625 2547.449219 2513.832031 2557.644531 2513.832031 2557.644531 L 2537.585938 2709.519531 C 2539.410156 2721.25 2531.382812 2732.25 2519.65625 2734.089844 L 2346.542969 2761.148438 C 2334.78125 2762.96875 2323.796875 2754.953125 2321.972656 2743.222656 C 2321.972656 2743.222656 2298.222656 2591.347656 2298.222656 2591.347656 L 2232.9375 2601.566406 C 2225.078125 2602.773438 2217.21875 2599.601562 2212.425781 2593.257812 C 2207.664062 2586.9375 2206.75 2578.484375 2210.082031 2571.289062 Z M 2368.105469 2331.878906 L 2532.796875 2511.148438 C 2532.796875 2511.148438 2485.964844 2518.480469 2485.964844 2518.480469 C 2474.199219 2520.296875 2466.175781 2531.296875 2468.035156 2543.050781 L 2491.75 2694.898438 C 2491.75 2694.898438 2361.136719 2715.3125 2361.136719 2715.3125 C 2361.136719 2715.3125 2337.386719 2563.441406 2337.386719 2563.441406 C 2335.5625 2551.707031 2324.578125 2543.695312 2312.816406 2545.511719 L 2265.984375 2552.84375 Z M 2497.605469 2409.253906 L 2624.28125 2235.644531 C 2637.730469 2217.214844 2643.296875 2194.1875 2639.777344 2171.640625 C 2636.257812 2149.097656 2623.910156 2128.871094 2605.492188 2115.429688 L 1656.484375 1422.96875 C 1638.066406 1409.527344 1615.035156 1403.945312 1592.492188 1407.46875 C 1569.949219 1410.996094 1549.71875 1423.324219 1536.269531 1441.753906 L 1404.414062 1622.460938 C 1390.964844 1640.890625 1385.398438 1663.917969 1388.917969 1686.464844 C 1392.441406 1709.007812 1404.785156 1729.234375 1423.203125 1742.675781 L 2298.019531 2381 L 2342.617188 2284.558594 C 2345.625 2278.027344 2351.695312 2273.429688 2358.792969 2272.3125 C 2365.890625 2271.199219 2373.101562 2273.726562 2377.96875 2279.023438 Z M 1661.839844 1563.78125 L 1605.871094 1757.257812 C 1603.371094 1765.863281 1606.511719 1775.136719 1613.683594 1780.484375 C 1620.859375 1785.832031 1630.625 1786.167969 1638.160156 1781.3125 L 1759.066406 1703.554688 C 1759.066406 1703.554688 1717.210938 1837.988281 1717.210938 1837.988281 C 1714.484375 1846.691406 1717.574219 1856.171875 1724.886719 1861.625 C 1732.203125 1867.074219 1742.148438 1867.308594 1749.738281 1862.230469 L 1916.910156 1749.898438 C 1926.753906 1743.269531 1929.375 1729.894531 1922.765625 1720.050781 C 1916.15625 1710.207031 1902.753906 1707.558594 1892.910156 1714.1875 L 1776.421875 1792.460938 C 1776.421875 1792.460938 1817.710938 1659.824219 1817.710938 1659.824219 C 1820.394531 1651.183594 1817.398438 1641.789062 1810.207031 1636.320312 C 1803.015625 1630.847656 1793.136719 1630.445312 1785.558594 1635.359375 L 1663.132812 1714.101562 C 1663.132812 1714.101562 1703.171875 1575.738281 1703.171875 1575.738281 C 1706.480469 1564.34375 1699.871094 1552.386719 1688.476562 1549.09375 C 1677.085938 1545.804688 1665.148438 1552.382812 1661.839844 1563.78125 Z M 2203.949219 1959.34375 L 2147.984375 2152.820312 C 2145.484375 2161.425781 2148.621094 2170.699219 2155.796875 2176.046875 C 2162.972656 2181.394531 2172.738281 2181.730469 2180.273438 2176.875 L 2301.179688 2099.121094 C 2301.179688 2099.121094 2259.324219 2233.550781 2259.324219 2233.550781 C 2256.597656 2242.253906 2259.6875 2251.734375 2267 2257.1875 C 2274.3125 2262.636719 2284.261719 2262.871094 2291.851562 2257.796875 L 2459.023438 2145.460938 C 2468.867188 2138.832031 2471.488281 2125.457031 2464.878906 2115.613281 C 2458.269531 2105.769531 2444.863281 2103.121094 2435.023438 2109.75 L 2318.53125 2188.023438 C 2318.53125 2188.023438 2359.820312 2055.390625 2359.820312 2055.390625 C 2362.507812 2046.746094 2359.507812 2037.351562 2352.316406 2031.882812 C 2345.128906 2026.410156 2335.25 2026.007812 2327.671875 2030.921875 L 2205.246094 2109.664062 C 2205.246094 2109.664062 2245.285156 1971.300781 2245.285156 1971.300781 C 2248.59375 1959.90625 2241.980469 1947.949219 2230.589844 1944.660156 C 2219.199219 1941.367188 2207.261719 1947.945312 2203.949219 1959.34375 Z M 1932.894531 1761.5625 L 1876.925781 1955.039062 C 1874.425781 1963.644531 1877.566406 1972.917969 1884.742188 1978.265625 C 1891.917969 1983.613281 1901.683594 1983.949219 1909.21875 1979.09375 L 2030.125 1901.335938 C 2030.125 1901.335938 1988.269531 2035.769531 1988.269531 2035.769531 C 1985.539062 2044.472656 1988.632812 2053.953125 1995.945312 2059.40625 C 2003.257812 2064.855469 2013.203125 2065.089844 2020.796875 2060.015625 L 2187.964844 1947.679688 C 2197.808594 1941.050781 2200.433594 1927.675781 2193.824219 1917.832031 C 2187.214844 1907.988281 2173.808594 1905.339844 2163.96875 1911.96875 L 2047.476562 1990.242188 C 2047.476562 1990.242188 2088.765625 1857.609375 2088.765625 1857.609375 C 2091.453125 1848.964844 2088.453125 1839.570312 2081.261719 1834.101562 C 2074.070312 1828.628906 2064.191406 1828.226562 2056.613281 1833.140625 L 1934.191406 1911.882812 C 1934.191406 1911.882812 1974.226562 1773.519531 1974.226562 1773.519531 C 1977.535156 1762.125 1970.925781 1750.167969 1959.535156 1746.878906 C 1948.140625 1743.585938 1936.207031 1750.164062 1932.894531 1761.5625 Z M 1932.894531 1761.5625 " fill-opacity="1" fill-rule="evenodd"/></g></g></g><path fill="#7fa3e7" d="M 1918.546875 3863.46875 C 1904.4375 3793.484375 1861.011719 3732.902344 1799.046875 3697.496094 C 1768.066406 3679.792969 1735.148438 3666.238281 1701.125 3657.113281 C 1671.804688 3682.558594 1633.910156 3698.050781 1592.140625 3698.050781 C 1550.371094 3698.050781 1512.472656 3682.558594 1483.429688 3657.113281 C 1458.257812 3663.75 1433.914062 3672.878906 1410.679688 3684.21875 C 1470.152344 3725.988281 1511.921875 3789.332031 1526.304688 3861.253906 L 1564.476562 4053.503906 C 1530.453125 4066.503906 1496.152344 4077.84375 1461.300781 4087.527344 C 1625.886719 4109.378906 1794.621094 4090.570312 1951.742188 4029.988281 Z M 1918.546875 3863.46875 " fill-opacity="1" fill-rule="nonzero"/><path fill="#7fa3e7" d="M 734.628906 4053.503906 L 773.078125 3861.53125 C 787.464844 3789.609375 829.234375 3726.265625 888.703125 3684.496094 C 865.191406 3673.15625 840.851562 3664.027344 815.953125 3657.386719 C 786.632812 3682.558594 748.738281 3698.050781 706.96875 3698.050781 C 665.199219 3698.050781 627.304688 3682.558594 598.257812 3657.113281 C 564.234375 3666.238281 531.316406 3679.792969 500.335938 3697.496094 C 438.375 3732.902344 394.667969 3793.484375 380.835938 3863.46875 L 347.367188 4029.988281 C 480.695312 4081.164062 622.046875 4103.015625 762.292969 4095.269531 C 787.738281 4093.886719 813.464844 4091.398438 838.636719 4088.078125 C 803.785156 4078.121094 768.929688 4066.78125 734.628906 4053.503906 Z M 734.628906 4053.503906 " fill-opacity="1" fill-rule="nonzero"/><path fill="#7fa3e7" d="M 1475.960938 3863.46875 C 1461.855469 3793.484375 1418.425781 3732.902344 1356.460938 3697.496094 C 1325.480469 3679.792969 1292.566406 3666.238281 1258.539062 3657.113281 C 1229.21875 3682.558594 1191.324219 3698.050781 1149.554688 3698.050781 C 1107.785156 3698.050781 1069.886719 3682.558594 1040.84375 3657.113281 C 1006.820312 3666.238281 973.902344 3679.792969 942.921875 3697.496094 C 880.960938 3732.902344 837.253906 3793.484375 823.421875 3863.46875 L 789.953125 4029.988281 C 1021.480469 4119.058594 1277.628906 4119.058594 1509.15625 4029.988281 Z M 1475.960938 3863.46875 " fill-opacity="1" fill-rule="nonzero"/><path fill="#7fa3e7" d="M 1315.523438 3476.757812 C 1315.523438 3479.472656 1315.457031 3482.1875 1315.324219 3484.902344 C 1315.191406 3487.613281 1314.992188 3490.324219 1314.722656 3493.027344 C 1314.457031 3495.730469 1314.125 3498.421875 1313.726562 3501.109375 C 1313.328125 3503.796875 1312.863281 3506.472656 1312.335938 3509.136719 C 1311.804688 3511.800781 1311.210938 3514.449219 1310.550781 3517.085938 C 1309.890625 3519.71875 1309.164062 3522.335938 1308.378906 3524.9375 C 1307.589844 3527.535156 1306.738281 3530.113281 1305.820312 3532.671875 C 1304.90625 3535.230469 1303.929688 3537.761719 1302.890625 3540.273438 C 1301.851562 3542.78125 1300.75 3545.261719 1299.589844 3547.71875 C 1298.425781 3550.175781 1297.207031 3552.601562 1295.925781 3554.996094 C 1294.644531 3557.390625 1293.308594 3559.753906 1291.910156 3562.082031 C 1290.515625 3564.414062 1289.0625 3566.707031 1287.550781 3568.964844 C 1286.042969 3571.222656 1284.480469 3573.445312 1282.863281 3575.625 C 1281.242188 3577.808594 1279.574219 3579.949219 1277.851562 3582.046875 C 1276.128906 3584.148438 1274.351562 3586.203125 1272.53125 3588.214844 C 1270.707031 3590.230469 1268.832031 3592.195312 1266.914062 3594.117188 C 1264.992188 3596.035156 1263.023438 3597.910156 1261.011719 3599.734375 C 1259 3601.558594 1256.945312 3603.332031 1254.84375 3605.054688 C 1252.746094 3606.777344 1250.605469 3608.449219 1248.421875 3610.066406 C 1246.242188 3611.683594 1244.019531 3613.246094 1241.761719 3614.757812 C 1239.503906 3616.265625 1237.210938 3617.71875 1234.878906 3619.113281 C 1232.550781 3620.511719 1230.1875 3621.847656 1227.792969 3623.128906 C 1225.394531 3624.410156 1222.96875 3625.632812 1220.515625 3626.792969 C 1218.058594 3627.953125 1215.578125 3629.054688 1213.066406 3630.09375 C 1210.558594 3631.132812 1208.023438 3632.109375 1205.46875 3633.023438 C 1202.910156 3633.941406 1200.332031 3634.792969 1197.730469 3635.582031 C 1195.132812 3636.371094 1192.515625 3637.09375 1189.882812 3637.753906 C 1187.246094 3638.414062 1184.597656 3639.007812 1181.933594 3639.539062 C 1179.269531 3640.066406 1176.59375 3640.53125 1173.90625 3640.929688 C 1171.21875 3641.328125 1168.523438 3641.660156 1165.820312 3641.929688 C 1163.117188 3642.195312 1160.410156 3642.394531 1157.699219 3642.527344 C 1154.984375 3642.660156 1152.269531 3642.726562 1149.554688 3642.726562 C 1146.835938 3642.726562 1144.125 3642.660156 1141.410156 3642.527344 C 1138.695312 3642.394531 1135.988281 3642.195312 1133.285156 3641.929688 C 1130.582031 3641.660156 1127.886719 3641.328125 1125.199219 3640.929688 C 1122.515625 3640.53125 1119.839844 3640.066406 1117.175781 3639.539062 C 1114.511719 3639.007812 1111.863281 3638.414062 1109.226562 3637.753906 C 1106.589844 3637.09375 1103.976562 3636.371094 1101.375 3635.582031 C 1098.777344 3634.792969 1096.199219 3633.941406 1093.640625 3633.023438 C 1091.082031 3632.109375 1088.550781 3631.132812 1086.039062 3630.09375 C 1083.53125 3629.054688 1081.046875 3627.953125 1078.59375 3626.792969 C 1076.136719 3625.632812 1073.710938 3624.410156 1071.316406 3623.128906 C 1068.921875 3621.847656 1066.558594 3620.511719 1064.226562 3619.113281 C 1061.898438 3617.71875 1059.605469 3616.265625 1057.347656 3614.757812 C 1055.085938 3613.246094 1052.867188 3611.683594 1050.6875 3610.066406 C 1048.503906 3608.449219 1046.363281 3606.777344 1044.265625 3605.054688 C 1042.164062 3603.332031 1040.109375 3601.558594 1038.09375 3599.734375 C 1036.082031 3597.910156 1034.117188 3596.035156 1032.195312 3594.117188 C 1030.273438 3592.195312 1028.402344 3590.230469 1026.578125 3588.214844 C 1024.753906 3586.203125 1022.980469 3584.148438 1021.257812 3582.046875 C 1019.535156 3579.949219 1017.863281 3577.808594 1016.246094 3575.625 C 1014.628906 3573.445312 1013.0625 3571.222656 1011.554688 3568.964844 C 1010.046875 3566.707031 1008.59375 3564.414062 1007.195312 3562.082031 C 1005.800781 3559.753906 1004.460938 3557.390625 1003.183594 3554.996094 C 1001.902344 3552.601562 1000.679688 3550.175781 999.519531 3547.71875 C 998.359375 3545.261719 997.257812 3542.78125 996.21875 3540.273438 C 995.179688 3537.761719 994.203125 3535.230469 993.285156 3532.671875 C 992.371094 3530.113281 991.519531 3527.535156 990.730469 3524.9375 C 989.941406 3522.335938 989.21875 3519.71875 988.558594 3517.085938 C 987.898438 3514.449219 987.304688 3511.800781 986.773438 3509.136719 C 986.242188 3506.472656 985.777344 3503.796875 985.378906 3501.109375 C 984.980469 3498.421875 984.648438 3495.730469 984.382812 3493.027344 C 984.117188 3490.324219 983.917969 3487.613281 983.785156 3484.902344 C 983.652344 3482.1875 983.585938 3479.472656 983.585938 3476.757812 C 983.585938 3474.042969 983.652344 3471.328125 983.785156 3468.613281 C 983.917969 3465.902344 984.117188 3463.191406 984.382812 3460.488281 C 984.648438 3457.785156 984.980469 3455.089844 985.378906 3452.40625 C 985.777344 3449.71875 986.242188 3447.042969 986.773438 3444.378906 C 987.304688 3441.714844 987.898438 3439.066406 988.558594 3436.429688 C 989.21875 3433.796875 989.941406 3431.179688 990.730469 3428.578125 C 991.519531 3425.980469 992.371094 3423.402344 993.285156 3420.84375 C 994.203125 3418.285156 995.179688 3415.753906 996.21875 3413.242188 C 997.257812 3410.734375 998.359375 3408.25 999.519531 3405.796875 C 1000.679688 3403.339844 1001.902344 3400.914062 1003.183594 3398.519531 C 1004.460938 3396.125 1005.800781 3393.761719 1007.195312 3391.433594 C 1008.59375 3389.101562 1010.046875 3386.808594 1011.554688 3384.550781 C 1013.0625 3382.292969 1014.628906 3380.070312 1016.246094 3377.890625 C 1017.863281 3375.707031 1019.535156 3373.566406 1021.257812 3371.46875 C 1022.980469 3369.367188 1024.753906 3367.3125 1026.578125 3365.300781 C 1028.402344 3363.285156 1030.273438 3361.320312 1032.195312 3359.398438 C 1034.117188 3357.480469 1036.082031 3355.605469 1038.09375 3353.78125 C 1040.109375 3351.957031 1042.164062 3350.183594 1044.265625 3348.460938 C 1046.363281 3346.738281 1048.503906 3345.066406 1050.6875 3343.449219 C 1052.867188 3341.832031 1055.085938 3340.269531 1057.347656 3338.757812 C 1059.605469 3337.25 1061.898438 3335.796875 1064.226562 3334.402344 C 1066.558594 3333.003906 1068.921875 3331.667969 1071.316406 3330.386719 C 1073.710938 3329.105469 1076.136719 3327.882812 1078.59375 3326.722656 C 1081.046875 3325.5625 1083.53125 3324.460938 1086.039062 3323.421875 C 1088.550781 3322.382812 1091.082031 3321.40625 1093.640625 3320.488281 C 1096.199219 3319.574219 1098.777344 3318.722656 1101.375 3317.933594 C 1103.976562 3317.144531 1106.589844 3316.421875 1109.226562 3315.761719 C 1111.863281 3315.101562 1114.511719 3314.507812 1117.175781 3313.976562 C 1119.839844 3313.449219 1122.515625 3312.984375 1125.199219 3312.585938 C 1127.886719 3312.1875 1130.582031 3311.855469 1133.285156 3311.585938 C 1135.988281 3311.320312 1138.699219 3311.121094 1141.410156 3310.988281 C 1144.125 3310.855469 1146.835938 3310.789062 1149.554688 3310.789062 C 1152.269531 3310.789062 1154.984375 3310.855469 1157.699219 3310.988281 C 1160.410156 3311.121094 1163.117188 3311.320312 1165.820312 3311.585938 C 1168.523438 3311.855469 1171.21875 3312.1875 1173.90625 3312.585938 C 1176.59375 3312.984375 1179.269531 3313.449219 1181.933594 3313.976562 C 1184.597656 3314.507812 1187.246094 3315.101562 1189.882812 3315.761719 C 1192.515625 3316.421875 1195.132812 3317.144531 1197.730469 3317.933594 C 1200.332031 3318.722656 1202.910156 3319.574219 1205.46875 3320.488281 C 1208.023438 3321.40625 1210.558594 3322.382812 1213.066406 3323.421875 C 1215.578125 3324.460938 1218.058594 3325.5625 1220.515625 3326.722656 C 1222.96875 3327.882812 1225.394531 3329.105469 1227.792969 3330.386719 C 1230.1875 3331.667969 1232.550781 3333.003906 1234.878906 3334.402344 C 1237.210938 3335.796875 1239.503906 3337.25 1241.761719 3338.757812 C 1244.019531 3340.269531 1246.242188 3341.832031 1248.421875 3343.449219 C 1250.605469 3345.066406 1252.746094 3346.738281 1254.84375 3348.460938 C 1256.945312 3350.183594 1259 3351.957031 1261.011719 3353.78125 C 1263.023438 3355.605469 1264.992188 3357.480469 1266.914062 3359.398438 C 1268.832031 3361.320312 1270.707031 3363.285156 1272.53125 3365.300781 C 1274.351562 3367.3125 1276.128906 3369.367188 1277.851562 3371.46875 C 1279.574219 3373.566406 1281.242188 3375.707031 1282.863281 3377.890625 C 1284.480469 3380.070312 1286.042969 3382.292969 1287.550781 3384.550781 C 1289.0625 3386.808594 1290.515625 3389.101562 1291.910156 3391.433594 C 1293.308594 3393.761719 1294.644531 3396.125 1295.925781 3398.519531 C 1297.207031 3400.914062 1298.425781 3403.339844 1299.589844 3405.796875 C 1300.75 3408.25 1301.851562 3410.734375 1302.890625 3413.242188 C 1303.929688 3415.753906 1304.90625 3418.285156 1305.820312 3420.84375 C 1306.738281 3423.402344 1307.589844 3425.980469 1308.375 3428.578125 C 1309.164062 3431.179688 1309.890625 3433.796875 1310.550781 3436.429688 C 1311.210938 3439.066406 1311.804688 3441.714844 1312.335938 3444.378906 C 1312.863281 3447.042969 1313.328125 3449.71875 1313.726562 3452.40625 C 1314.125 3455.089844 1314.457031 3457.785156 1314.722656 3460.488281 C 1314.992188 3463.191406 1315.191406 3465.902344 1315.324219 3468.613281 C 1315.457031 3471.328125 1315.523438 3474.042969 1315.523438 3476.757812 Z M 1315.523438 3476.757812 " fill-opacity="1" fill-rule="nonzero"/><path fill="#7fa3e7" d="M 872.9375 3476.757812 C 872.9375 3479.472656 872.871094 3482.1875 872.738281 3484.902344 C 872.605469 3487.613281 872.40625 3490.324219 872.140625 3493.027344 C 871.871094 3495.730469 871.539062 3498.421875 871.140625 3501.109375 C 870.742188 3503.796875 870.277344 3506.472656 869.75 3509.136719 C 869.21875 3511.800781 868.625 3514.449219 867.964844 3517.085938 C 867.304688 3519.71875 866.578125 3522.335938 865.792969 3524.9375 C 865.003906 3527.535156 864.152344 3530.113281 863.234375 3532.671875 C 862.320312 3535.230469 861.34375 3537.761719 860.304688 3540.273438 C 859.265625 3542.78125 858.164062 3545.261719 857.003906 3547.71875 C 855.839844 3550.175781 854.621094 3552.601562 853.339844 3554.996094 C 852.058594 3557.390625 850.722656 3559.753906 849.324219 3562.082031 C 847.929688 3564.414062 846.476562 3566.707031 844.96875 3568.964844 C 843.457031 3571.222656 841.894531 3573.445312 840.277344 3575.625 C 838.660156 3577.808594 836.988281 3579.949219 835.265625 3582.046875 C 833.542969 3584.148438 831.769531 3586.203125 829.945312 3588.214844 C 828.121094 3590.230469 826.246094 3592.195312 824.328125 3594.117188 C 822.40625 3596.035156 820.4375 3597.910156 818.425781 3599.734375 C 816.414062 3601.558594 814.359375 3603.332031 812.257812 3605.054688 C 810.160156 3606.777344 808.019531 3608.449219 805.835938 3610.066406 C 803.65625 3611.683594 801.433594 3613.246094 799.175781 3614.757812 C 796.917969 3616.265625 794.625 3617.71875 792.292969 3619.113281 C 789.964844 3620.511719 787.601562 3621.847656 785.207031 3623.128906 C 782.808594 3624.410156 780.382812 3625.632812 777.929688 3626.792969 C 775.472656 3627.953125 772.992188 3629.054688 770.480469 3630.09375 C 767.972656 3631.132812 765.4375 3632.109375 762.882812 3633.023438 C 760.324219 3633.941406 757.746094 3634.792969 755.148438 3635.582031 C 752.546875 3636.371094 749.929688 3637.09375 747.296875 3637.753906 C 744.660156 3638.414062 742.011719 3639.007812 739.347656 3639.539062 C 736.683594 3640.066406 734.007812 3640.53125 731.320312 3640.929688 C 728.632812 3641.328125 725.9375 3641.660156 723.234375 3641.929688 C 720.53125 3642.195312 717.824219 3642.394531 715.113281 3642.527344 C 712.398438 3642.660156 709.683594 3642.726562 706.96875 3642.726562 C 704.253906 3642.726562 701.539062 3642.660156 698.824219 3642.527344 C 696.113281 3642.394531 693.402344 3642.195312 690.699219 3641.929688 C 687.996094 3641.660156 685.300781 3641.328125 682.617188 3640.929688 C 679.929688 3640.53125 677.253906 3640.066406 674.589844 3639.539062 C 671.925781 3639.007812 669.277344 3638.414062 666.640625 3637.753906 C 664.007812 3637.09375 661.390625 3636.371094 658.789062 3635.582031 C 656.191406 3634.792969 653.613281 3633.941406 651.054688 3633.023438 C 648.496094 3632.109375 645.964844 3631.132812 643.453125 3630.09375 C 640.945312 3629.054688 638.460938 3627.953125 636.007812 3626.792969 C 633.550781 3625.632812 631.125 3624.410156 628.730469 3623.128906 C 626.335938 3621.847656 623.972656 3620.511719 621.644531 3619.113281 C 619.3125 3617.71875 617.019531 3616.265625 614.761719 3614.757812 C 612.5 3613.246094 610.28125 3611.683594 608.101562 3610.066406 C 605.917969 3608.449219 603.777344 3606.777344 601.679688 3605.054688 C 599.578125 3603.332031 597.523438 3601.558594 595.511719 3599.734375 C 593.496094 3597.910156 591.53125 3596.035156 589.609375 3594.117188 C 587.6875 3592.195312 585.816406 3590.230469 583.992188 3588.214844 C 582.167969 3586.203125 580.394531 3584.148438 578.671875 3582.046875 C 576.949219 3579.949219 575.277344 3577.808594 573.660156 3575.625 C 572.042969 3573.445312 570.476562 3571.222656 568.96875 3568.964844 C 567.460938 3566.707031 566.007812 3564.414062 564.609375 3562.082031 C 563.214844 3559.753906 561.875 3557.390625 560.597656 3554.996094 C 559.316406 3552.601562 558.09375 3550.175781 556.933594 3547.71875 C 555.773438 3545.261719 554.671875 3542.78125 553.632812 3540.273438 C 552.59375 3537.761719 551.617188 3535.230469 550.699219 3532.671875 C 549.785156 3530.113281 548.933594 3527.535156 548.144531 3524.9375 C 547.355469 3522.335938 546.632812 3519.71875 545.972656 3517.085938 C 545.3125 3514.449219 544.71875 3511.800781 544.1875 3509.136719 C 543.65625 3506.472656 543.195312 3503.796875 542.796875 3501.109375 C 542.394531 3498.421875 542.0625 3495.730469 541.796875 3493.027344 C 541.53125 3490.324219 541.332031 3487.613281 541.199219 3484.902344 C 541.066406 3482.1875 541 3479.472656 541 3476.757812 C 541 3474.042969 541.066406 3471.328125 541.199219 3468.613281 C 541.332031 3465.902344 541.53125 3463.191406 541.796875 3460.488281 C 542.0625 3457.785156 542.394531 3455.089844 542.796875 3452.40625 C 543.195312 3449.71875 543.65625 3447.042969 544.1875 3444.378906 C 544.71875 3441.714844 545.3125 3439.066406 545.972656 3436.429688 C 546.632812 3433.796875 547.355469 3431.179688 548.144531 3428.578125 C 548.933594 3425.980469 549.785156 3423.402344 550.699219 3420.84375 C 551.617188 3418.285156 552.59375 3415.753906 553.632812 3413.242188 C 554.671875 3410.734375 555.773438 3408.25 556.933594 3405.796875 C 558.09375 3403.339844 559.316406 3400.914062 560.597656 3398.519531 C 561.875 3396.125 563.214844 3393.761719 564.609375 3391.433594 C 566.007812 3389.101562 567.460938 3386.808594 568.96875 3384.550781 C 570.476562 3382.292969 572.042969 3380.070312 573.660156 3377.890625 C 575.277344 3375.707031 576.949219 3373.566406 578.671875 3371.46875 C 580.394531 3369.367188 582.167969 3367.3125 583.992188 3365.300781 C 585.816406 3363.285156 587.6875 3361.320312 589.609375 3359.398438 C 591.53125 3357.480469 593.496094 3355.605469 595.511719 3353.78125 C 597.523438 3351.957031 599.578125 3350.183594 601.679688 3348.460938 C 603.777344 3346.738281 605.917969 3345.066406 608.101562 3343.449219 C 610.28125 3341.832031 612.503906 3340.269531 614.761719 3338.757812 C 617.019531 3337.25 619.3125 3335.796875 621.644531 3334.402344 C 623.972656 3333.003906 626.335938 3331.667969 628.730469 3330.386719 C 631.125 3329.105469 633.550781 3327.882812 636.007812 3326.722656 C 638.460938 3325.5625 640.945312 3324.460938 643.453125 3323.421875 C 645.964844 3322.382812 648.496094 3321.40625 651.054688 3320.488281 C 653.613281 3319.574219 656.191406 3318.722656 658.789062 3317.933594 C 661.390625 3317.144531 664.007812 3316.421875 666.640625 3315.761719 C 669.277344 3315.101562 671.925781 3314.507812 674.589844 3313.976562 C 677.253906 3313.449219 679.929688 3312.984375 682.617188 3312.585938 C 685.300781 3312.1875 687.996094 3311.855469 690.699219 3311.585938 C 693.402344 3311.320312 696.113281 3311.121094 698.824219 3310.988281 C 701.539062 3310.855469 704.253906 3310.789062 706.96875 3310.789062 C 709.683594 3310.789062 712.398438 3310.855469 715.113281 3310.988281 C 717.824219 3311.121094 720.53125 3311.320312 723.234375 3311.585938 C 725.9375 3311.855469 728.632812 3312.1875 731.320312 3312.585938 C 734.007812 3312.984375 736.683594 3313.449219 739.347656 3313.976562 C 742.011719 3314.507812 744.660156 3315.101562 747.296875 3315.761719 C 749.929688 3316.421875 752.546875 3317.144531 755.148438 3317.933594 C 757.746094 3318.722656 760.324219 3319.574219 762.882812 3320.488281 C 765.4375 3321.40625 767.972656 3322.382812 770.480469 3323.421875 C 772.992188 3324.460938 775.472656 3325.5625 777.929688 3326.722656 C 780.382812 3327.882812 782.808594 3329.105469 785.207031 3330.386719 C 787.601562 3331.667969 789.964844 3333.003906 792.292969 3334.402344 C 794.625 3335.796875 796.917969 3337.25 799.175781 3338.757812 C 801.433594 3340.269531 803.65625 3341.832031 805.835938 3343.449219 C 808.019531 3345.066406 810.160156 3346.738281 812.257812 3348.460938 C 814.359375 3350.183594 816.414062 3351.957031 818.425781 3353.78125 C 820.4375 3355.605469 822.40625 3357.480469 824.328125 3359.398438 C 826.246094 3361.320312 828.121094 3363.285156 829.945312 3365.300781 C 831.769531 3367.3125 833.542969 3369.367188 835.265625 3371.46875 C 836.988281 3373.566406 838.660156 3375.707031 840.277344 3377.890625 C 841.894531 3380.070312 843.457031 3382.292969 844.96875 3384.550781 C 846.476562 3386.808594 847.929688 3389.101562 849.324219 3391.433594 C 850.722656 3393.761719 852.058594 3396.125 853.339844 3398.519531 C 854.621094 3400.914062 855.839844 3403.339844 857.003906 3405.796875 C 858.164062 3408.25 859.265625 3410.734375 860.304688 3413.242188 C 861.34375 3415.753906 862.320312 3418.285156 863.234375 3420.84375 C 864.152344 3423.402344 865.003906 3425.980469 865.792969 3428.578125 C 866.578125 3431.179688 867.304688 3433.796875 867.964844 3436.429688 C 868.625 3439.066406 869.21875 3441.714844 869.75 3444.378906 C 870.277344 3447.042969 870.742188 3449.71875 871.140625 3452.40625 C 871.539062 3455.089844 871.871094 3457.785156 872.140625 3460.488281 C 872.40625 3463.191406 872.605469 3465.902344 872.738281 3468.613281 C 872.871094 3471.328125 872.9375 3474.042969 872.9375 3476.757812 Z M 872.9375 3476.757812 " fill-opacity="1" fill-rule="nonzero"/><path fill="#7fa3e7" d="M 1758.109375 3476.757812 C 1758.109375 3479.472656 1758.042969 3482.1875 1757.910156 3484.902344 C 1757.777344 3487.613281 1757.578125 3490.324219 1757.308594 3493.027344 C 1757.042969 3495.730469 1756.710938 3498.421875 1756.3125 3501.109375 C 1755.914062 3503.796875 1755.449219 3506.472656 1754.921875 3509.136719 C 1754.390625 3511.800781 1753.796875 3514.449219 1753.136719 3517.085938 C 1752.476562 3519.71875 1751.75 3522.335938 1750.960938 3524.9375 C 1750.175781 3527.535156 1749.324219 3530.113281 1748.40625 3532.671875 C 1747.492188 3535.230469 1746.515625 3537.761719 1745.476562 3540.273438 C 1744.4375 3542.78125 1743.335938 3545.261719 1742.175781 3547.71875 C 1741.011719 3550.175781 1739.792969 3552.601562 1738.511719 3554.996094 C 1737.230469 3557.390625 1735.894531 3559.753906 1734.496094 3562.082031 C 1733.101562 3564.414062 1731.648438 3566.707031 1730.136719 3568.964844 C 1728.628906 3571.222656 1727.066406 3573.445312 1725.449219 3575.625 C 1723.828125 3577.808594 1722.160156 3579.949219 1720.4375 3582.046875 C 1718.710938 3584.148438 1716.9375 3586.203125 1715.113281 3588.214844 C 1713.289062 3590.230469 1711.417969 3592.195312 1709.496094 3594.117188 C 1707.578125 3596.035156 1705.609375 3597.910156 1703.597656 3599.734375 C 1701.585938 3601.558594 1699.527344 3603.332031 1697.429688 3605.054688 C 1695.328125 3606.777344 1693.1875 3608.449219 1691.007812 3610.066406 C 1688.824219 3611.683594 1686.605469 3613.246094 1684.347656 3614.757812 C 1682.089844 3616.265625 1679.792969 3617.71875 1677.464844 3619.113281 C 1675.136719 3620.511719 1672.773438 3621.847656 1670.378906 3623.128906 C 1667.980469 3624.410156 1665.554688 3625.632812 1663.101562 3626.792969 C 1660.644531 3627.953125 1658.164062 3629.054688 1655.652344 3630.09375 C 1653.144531 3631.132812 1650.609375 3632.109375 1648.054688 3633.023438 C 1645.496094 3633.941406 1642.917969 3634.792969 1640.316406 3635.582031 C 1637.71875 3636.371094 1635.101562 3637.09375 1632.46875 3637.753906 C 1629.832031 3638.414062 1627.183594 3639.007812 1624.519531 3639.539062 C 1621.855469 3640.066406 1619.179688 3640.53125 1616.492188 3640.929688 C 1613.804688 3641.328125 1611.109375 3641.660156 1608.40625 3641.929688 C 1605.703125 3642.195312 1602.996094 3642.394531 1600.285156 3642.527344 C 1597.570312 3642.660156 1594.855469 3642.726562 1592.140625 3642.726562 C 1589.421875 3642.726562 1586.710938 3642.660156 1583.996094 3642.527344 C 1581.28125 3642.394531 1578.574219 3642.195312 1575.871094 3641.929688 C 1573.167969 3641.660156 1570.472656 3641.328125 1567.785156 3640.929688 C 1565.101562 3640.53125 1562.425781 3640.066406 1559.761719 3639.539062 C 1557.097656 3639.007812 1554.445312 3638.414062 1551.8125 3637.753906 C 1549.175781 3637.09375 1546.558594 3636.371094 1543.960938 3635.582031 C 1541.363281 3634.792969 1538.785156 3633.941406 1536.226562 3633.023438 C 1533.667969 3632.109375 1531.136719 3631.132812 1528.625 3630.09375 C 1526.117188 3629.054688 1523.632812 3627.953125 1521.179688 3626.792969 C 1518.722656 3625.632812 1516.296875 3624.410156 1513.902344 3623.128906 C 1511.507812 3621.847656 1509.144531 3620.511719 1506.8125 3619.113281 C 1504.484375 3617.71875 1502.191406 3616.265625 1499.933594 3614.757812 C 1497.671875 3613.246094 1495.453125 3611.683594 1493.273438 3610.066406 C 1491.089844 3608.449219 1488.949219 3606.777344 1486.851562 3605.054688 C 1484.75 3603.332031 1482.695312 3601.558594 1480.679688 3599.734375 C 1478.667969 3597.910156 1476.703125 3596.035156 1474.78125 3594.117188 C 1472.859375 3592.195312 1470.988281 3590.230469 1469.164062 3588.214844 C 1467.339844 3586.203125 1465.566406 3584.148438 1463.84375 3582.046875 C 1462.121094 3579.949219 1460.449219 3577.808594 1458.832031 3575.625 C 1457.214844 3573.445312 1455.648438 3571.222656 1454.140625 3568.964844 C 1452.632812 3566.707031 1451.179688 3564.414062 1449.78125 3562.082031 C 1448.386719 3559.753906 1447.046875 3557.390625 1445.769531 3554.996094 C 1444.488281 3552.601562 1443.265625 3550.175781 1442.105469 3547.71875 C 1440.945312 3545.261719 1439.84375 3542.78125 1438.804688 3540.273438 C 1437.765625 3537.761719 1436.785156 3535.230469 1435.871094 3532.671875 C 1434.957031 3530.113281 1434.105469 3527.535156 1433.316406 3524.9375 C 1432.527344 3522.335938 1431.804688 3519.71875 1431.144531 3517.085938 C 1430.484375 3514.449219 1429.890625 3511.800781 1429.359375 3509.136719 C 1428.828125 3506.472656 1428.363281 3503.796875 1427.964844 3501.109375 C 1427.566406 3498.421875 1427.234375 3495.730469 1426.96875 3493.027344 C 1426.703125 3490.324219 1426.503906 3487.613281 1426.371094 3484.902344 C 1426.238281 3482.1875 1426.171875 3479.472656 1426.171875 3476.757812 C 1426.171875 3474.042969 1426.238281 3471.328125 1426.371094 3468.613281 C 1426.503906 3465.902344 1426.703125 3463.191406 1426.96875 3460.488281 C 1427.234375 3457.785156 1427.566406 3455.089844 1427.964844 3452.40625 C 1428.363281 3449.71875 1428.828125 3447.042969 1429.359375 3444.378906 C 1429.890625 3441.714844 1430.484375 3439.066406 1431.144531 3436.429688 C 1431.804688 3433.796875 1432.527344 3431.179688 1433.316406 3428.578125 C 1434.105469 3425.980469 1434.957031 3423.402344 1435.871094 3420.84375 C 1436.785156 3418.285156 1437.765625 3415.753906 1438.804688 3413.242188 C 1439.84375 3410.734375 1440.945312 3408.25 1442.105469 3405.796875 C 1443.265625 3403.339844 1444.488281 3400.914062 1445.769531 3398.519531 C 1447.046875 3396.125 1448.386719 3393.761719 1449.78125 3391.433594 C 1451.179688 3389.101562 1452.632812 3386.808594 1454.140625 3384.550781 C 1455.648438 3382.292969 1457.214844 3380.070312 1458.832031 3377.890625 C 1460.449219 3375.707031 1462.121094 3373.566406 1463.84375 3371.46875 C 1465.566406 3369.367188 1467.339844 3367.3125 1469.164062 3365.300781 C 1470.988281 3363.285156 1472.859375 3361.320312 1474.78125 3359.398438 C 1476.703125 3357.480469 1478.667969 3355.605469 1480.679688 3353.78125 C 1482.695312 3351.957031 1484.75 3350.183594 1486.851562 3348.460938 C 1488.949219 3346.738281 1491.089844 3345.066406 1493.273438 3343.449219 C 1495.453125 3341.832031 1497.671875 3340.269531 1499.933594 3338.757812 C 1502.191406 3337.25 1504.484375 3335.796875 1506.8125 3334.402344 C 1509.144531 3333.003906 1511.507812 3331.667969 1513.902344 3330.386719 C 1516.296875 3329.105469 1518.722656 3327.882812 1521.179688 3326.722656 C 1523.632812 3325.5625 1526.117188 3324.460938 1528.625 3323.421875 C 1531.136719 3322.382812 1533.667969 3321.40625 1536.226562 3320.488281 C 1538.785156 3319.574219 1541.363281 3318.722656 1543.960938 3317.933594 C 1546.5625 3317.144531 1549.175781 3316.421875 1551.8125 3315.761719 C 1554.445312 3315.101562 1557.097656 3314.507812 1559.761719 3313.976562 C 1562.425781 3313.449219 1565.101562 3312.984375 1567.785156 3312.585938 C 1570.472656 3312.1875 1573.167969 3311.855469 1575.871094 3311.585938 C 1578.574219 3311.320312 1581.28125 3311.121094 1583.996094 3310.988281 C 1586.710938 3310.855469 1589.421875 3310.789062 1592.140625 3310.789062 C 1594.855469 3310.789062 1597.570312 3310.855469 1600.285156 3310.988281 C 1602.996094 3311.121094 1605.703125 3311.320312 1608.40625 3311.585938 C 1611.109375 3311.855469 1613.804688 3312.1875 1616.492188 3312.585938 C 1619.179688 3312.984375 1621.855469 3313.449219 1624.519531 3313.976562 C 1627.183594 3314.507812 1629.832031 3315.101562 1632.46875 3315.761719 C 1635.101562 3316.421875 1637.71875 3317.144531 1640.316406 3317.933594 C 1642.917969 3318.722656 1645.496094 3319.574219 1648.054688 3320.488281 C 1650.609375 3321.40625 1653.144531 3322.382812 1655.652344 3323.421875 C 1658.164062 3324.460938 1660.644531 3325.5625 1663.101562 3326.722656 C 1665.554688 3327.882812 1667.980469 3329.105469 1670.378906 3330.386719 C 1672.773438 3331.667969 1675.136719 3333.003906 1677.464844 3334.402344 C 1679.792969 3335.796875 1682.089844 3337.25 1684.347656 3338.757812 C 1686.605469 3340.269531 1688.824219 3341.832031 1691.007812 3343.449219 C 1693.1875 3345.066406 1695.328125 3346.738281 1697.429688 3348.460938 C 1699.527344 3350.183594 1701.585938 3351.957031 1703.597656 3353.78125 C 1705.609375 3355.605469 1707.578125 3357.480469 1709.496094 3359.398438 C 1711.417969 3361.320312 1713.289062 3363.285156 1715.113281 3365.300781 C 1716.9375 3367.3125 1718.710938 3369.367188 1720.4375 3371.46875 C 1722.160156 3373.566406 1723.828125 3375.707031 1725.449219 3377.890625 C 1727.066406 3380.070312 1728.628906 3382.292969 1730.136719 3384.550781 C 1731.648438 3386.808594 1733.101562 3389.101562 1734.496094 3391.433594 C 1735.894531 3393.761719 1737.230469 3396.125 1738.511719 3398.519531 C 1739.792969 3400.914062 1741.011719 3403.339844 1742.175781 3405.796875 C 1743.335938 3408.25 1744.4375 3410.734375 1745.476562 3413.242188 C 1746.515625 3415.753906 1747.492188 3418.285156 1748.40625 3420.84375 C 1749.324219 3423.402344 1750.175781 3425.980469 1750.960938 3428.578125 C 1751.75 3431.179688 1752.476562 3433.796875 1753.136719 3436.429688 C 1753.796875 3439.066406 1754.390625 3441.714844 1754.921875 3444.378906 C 1755.449219 3447.042969 1755.914062 3449.71875 1756.3125 3452.40625 C 1756.710938 3455.089844 1757.042969 3457.785156 1757.308594 3460.488281 C 1757.578125 3463.191406 1757.777344 3465.902344 1757.910156 3468.613281 C 1758.042969 3471.328125 1758.109375 3474.042969 1758.109375 3476.757812 Z M 1758.109375 3476.757812 " fill-opacity="1" fill-rule="nonzero"/><path fill="#7fa3e7" d="M 1813.433594 2812.878906 C 1813.433594 2661.847656 1660.1875 2532.390625 1456.597656 2511.644531 C 1455.769531 2511.644531 1454.9375 2511.644531 1454.109375 2511.644531 C 1477.34375 2531.5625 1496.984375 2553.691406 1512.472656 2577.203125 C 1656.039062 2610.949219 1758.109375 2705.277344 1758.109375 2812.878906 C 1758.109375 2917.441406 1661.847656 3011.488281 1518.835938 3047.171875 C 1505.558594 3050.492188 1496.707031 3062.941406 1497.8125 3076.496094 L 1504.175781 3145.925781 L 1380.25 3065.152344 C 1376.101562 3062.664062 1371.675781 3061.003906 1366.972656 3060.726562 C 1336.546875 3058.789062 1306.949219 3054.089844 1278.734375 3047.171875 C 1250.796875 3058.515625 1220.921875 3067.644531 1189.386719 3074.558594 C 1191.046875 3075.664062 1192.429688 3077.046875 1194.367188 3077.878906 C 1244.433594 3098.625 1298.925781 3111.070312 1356.1875 3115.496094 L 1521.601562 3223.378906 C 1526.304688 3226.421875 1531.5625 3227.804688 1536.816406 3227.804688 C 1541.796875 3227.804688 1546.773438 3226.421875 1551.199219 3223.929688 C 1560.328125 3218.398438 1565.308594 3208.441406 1564.476562 3197.652344 L 1555.074219 3094.472656 C 1710.53125 3048.28125 1813.433594 2937.355469 1813.433594 2812.878906 Z M 1813.433594 2812.878906 " fill-opacity="1" fill-rule="nonzero"/><g clip-path="url(#1dfb962b33)"><path fill="#7fa3e7" d="M 1496.707031 2729.894531 C 1496.707031 2561.710938 1298.648438 2425.617188 1054.121094 2425.617188 C 809.59375 2425.617188 611.535156 2561.710938 611.535156 2729.894531 C 611.535156 2873.734375 757.035156 2994.0625 952.601562 3025.875 L 915.8125 3172.480469 L 1090.359375 3032.789062 C 1317.738281 3020.339844 1496.707031 2889.5 1496.707031 2729.894531 Z M 1496.707031 2729.894531 " fill-opacity="1" fill-rule="nonzero"/></g><g clip-path="url(#31849ed1d9)"><path fill="#7fa3e7" d="M 2415.277344 3224.414062 C 2329.171875 3224.414062 2280.339844 3272.660156 2278.949219 3342.496094 L 2278.949219 3345.988281 L 2354.96875 3345.988281 L 2354.96875 3342.496094 C 2356.632812 3311.648438 2377.972656 3291.75 2410.226562 3291.75 C 2442.199219 3291.75 2463.515625 3310.234375 2463.515625 3336.320312 C 2463.515625 3362.40625 2452.574219 3375.875 2416.398438 3397.480469 C 2377.6875 3420.199219 2362.242188 3445.445312 2365.890625 3490.324219 L 2366.332031 3502.296875 L 2440.789062 3502.296875 L 2440.789062 3490.902344 C 2440.789062 3463.980469 2451.175781 3450.210938 2488.480469 3428.621094 C 2528.027344 3405.332031 2548.488281 3375.894531 2548.488281 3333.8125 C 2548.488281 3269.011719 2495.5 3224.414062 2415.277344 3224.414062 Z M 2405.171875 3554.402344 C 2376.636719 3554.402344 2358.835938 3570.964844 2358.835938 3597.957031 C 2358.835938 3624.703125 2376.652344 3641.238281 2405.171875 3641.238281 C 2433.6875 3641.238281 2451.269531 3624.703125 2451.269531 3597.957031 C 2451.269531 3570.964844 2433.707031 3554.402344 2405.171875 3554.402344 Z M 2405.171875 3554.402344 " fill-opacity="1" fill-rule="nonzero"/></g><g clip-path="url(#482a2437a2)"><path fill="#7fa3e7" d="M 724.777344 1668.914062 C 638.671875 1668.914062 589.839844 1717.160156 588.449219 1786.996094 L 588.449219 1790.488281 L 664.46875 1790.488281 L 664.46875 1786.996094 C 666.132812 1756.148438 687.472656 1736.25 719.726562 1736.25 C 751.699219 1736.25 773.015625 1754.734375 773.015625 1780.820312 C 773.015625 1806.90625 762.074219 1820.375 725.898438 1841.980469 C 687.1875 1864.699219 671.742188 1889.945312 675.390625 1934.824219 L 675.832031 1946.796875 L 750.289062 1946.796875 L 750.289062 1935.402344 C 750.289062 1908.480469 760.675781 1894.710938 797.980469 1873.121094 C 837.527344 1849.832031 857.988281 1820.394531 857.988281 1778.3125 C 857.988281 1713.511719 805 1668.914062 724.777344 1668.914062 Z M 714.671875 1998.902344 C 686.136719 1998.902344 668.335938 2015.46875 668.335938 2042.457031 C 668.335938 2069.203125 686.152344 2085.738281 714.671875 2085.738281 C 743.1875 2085.738281 760.769531 2069.203125 760.769531 2042.457031 C 760.769531 2015.46875 743.207031 1998.902344 714.671875 1998.902344 Z M 714.671875 1998.902344 " fill-opacity="1" fill-rule="nonzero"/></g><g clip-path="url(#89fb3228da)"><path fill="#7fa3e7" d="M 2137.5625 563.414062 C 2051.453125 563.414062 2002.625 611.660156 2001.234375 681.496094 L 2001.234375 684.988281 L 2077.25 684.988281 L 2077.25 681.496094 C 2078.917969 650.648438 2100.257812 630.75 2132.507812 630.75 C 2164.484375 630.75 2185.800781 649.234375 2185.800781 675.320312 C 2185.800781 701.40625 2174.859375 714.875 2138.683594 736.480469 C 2099.96875 759.199219 2084.527344 784.445312 2088.171875 829.324219 L 2088.613281 841.296875 L 2163.070312 841.296875 L 2163.070312 829.902344 C 2163.070312 802.980469 2173.460938 789.210938 2210.765625 767.621094 C 2250.3125 744.332031 2270.773438 714.894531 2270.773438 672.8125 C 2270.773438 608.011719 2217.785156 563.414062 2137.5625 563.414062 Z M 2127.453125 893.402344 C 2098.917969 893.402344 2081.117188 909.96875 2081.117188 936.957031 C 2081.117188 963.703125 2098.9375 980.238281 2127.453125 980.238281 C 2155.972656 980.238281 2173.554688 963.703125 2173.554688 936.957031 C 2173.554688 909.96875 2155.988281 893.402344 2127.453125 893.402344 Z M 2127.453125 893.402344 " fill-opacity="1" fill-rule="nonzero"/></g></svg>