<svg xmlns="http://www.w3.org/2000/svg" xmlns:xlink="http://www.w3.org/1999/xlink" width="793" zoomAndPan="magnify" viewBox="0 0 595.5 842.249979" height="100" preserveAspectRatio="xMidYMid meet" version="1.0"><defs><clipPath id="77b21b8699"><path d="M 59.675781 149.03125 L 533 149.03125 L 533 622 L 59.675781 622 Z M 59.675781 149.03125 " clip-rule="nonzero"/></clipPath></defs><g clip-path="url(#77b21b8699)"><path fill="#7fa3e7" d="M 365.371094 496.816406 L 481.859375 613.265625 C 493.390625 624.796875 512.121094 624.792969 523.65625 613.257812 C 535.1875 601.722656 535.183594 582.992188 523.648438 571.457031 L 407.238281 455.089844 C 430.65625 423.238281 444.5 383.902344 444.5 341.355469 C 444.5 235.207031 358.320312 149.03125 252.175781 149.03125 C 146.027344 149.03125 59.851562 235.207031 59.851562 341.355469 C 59.851562 447.503906 146.027344 533.679688 252.175781 533.679688 C 294.476562 533.679688 333.601562 519.996094 365.371094 496.816406 Z M 252.175781 208.144531 C 325.695312 208.144531 385.390625 267.832031 385.390625 341.355469 C 385.390625 414.878906 325.695312 474.570312 252.175781 474.570312 C 178.652344 474.570312 118.964844 414.878906 118.964844 341.355469 C 118.964844 267.832031 178.652344 208.144531 252.175781 208.144531 Z M 252.175781 208.144531 " fill-opacity="1" fill-rule="evenodd"/></g></svg>